<svg xmlns="http://www.w3.org/2000/svg" viewBox="0 0 128.88 75.36"><defs><style>.cls-1{font-size:16px;font-family:OpenSans-Regular, Open Sans;}.cls-1,.cls-2{fill:#fff;}.cls-3{fill:none;stroke:#fff;stroke-miterlimit:10;}</style></defs><g id="Livello_2" data-name="Livello 2"><g id="Widget_Awards" data-name="Widget Awards"><text class="cls-1" transform="translate(46.14 71.03)">2017</text><path class="cls-2" d="M53.69,25.76h5.63v.67c-.22,0-.45.07-.67.12-.52.13-.68.38-.53.91s.36,1.27.54,1.9c.56,2,1.12,3.91,1.69,5.87l.13.37c.07-.15.12-.22.15-.3q1.11-2.86,2.2-5.75a.56.56,0,0,0,0-.36c-.14-.48-.31-1-.46-1.44a1.57,1.57,0,0,0-1.45-1.27.77.77,0,0,1-.17-.05v-.66h5.73v.66c-.26,0-.53.07-.79.13-.66.14-.84.45-.65,1.1l2.25,7.67a1.78,1.78,0,0,0,.1.23c0-.07.1-.11.12-.15C68.24,33,69,30.63,69.7,28.23c.32-1.07,0-1.46-1.06-1.7l-.43-.09v-.68h4.84s0,.08,0,.11c0,.55,0,.56-.49.72a2.12,2.12,0,0,0-1.44,1.26c-.36.89-.68,1.8-1,2.72-.84,2.53-1.66,5.06-2.48,7.59a.28.28,0,0,1-.33.23c-.44,0-.88,0-1.32,0-.21,0-.29-.07-.35-.26l-2.13-6.69-.14-.4-1,2.71-1.65,4.4a.29.29,0,0,1-.34.24q-.64,0-1.29,0a.34.34,0,0,1-.4-.28Q57.15,33,55.55,28a1.83,1.83,0,0,1-.08-.25A1.45,1.45,0,0,0,54.3,26.6l-.08,0C53.64,26.42,53.64,26.42,53.69,25.76Z"/><path class="cls-2" d="M0,8.48H2.13v23.8a5.83,5.83,0,0,0,5.76,5.89c1.31,0,2.62,0,3.93,0a4.25,4.25,0,0,1,4.1,4.08s0,.09,0,.15H13.8a2.14,2.14,0,0,0-2.16-2.11H8A7.91,7.91,0,0,1,.11,33.52,7.45,7.45,0,0,1,0,32.27V8.48Z"/><path class="cls-2" d="M20.14,42.39H18a4.05,4.05,0,0,1,1-2.7,4.15,4.15,0,0,1,3.29-1.53h3.85a5.83,5.83,0,0,0,5.56-4.75,8,8,0,0,0,.11-1.29q0-11.61,0-23.23V8.49H34V32.21a8,8,0,0,1-6.48,7.93,8.2,8.2,0,0,1-1.4.14c-1.22,0-2.45,0-3.67,0a2.12,2.12,0,0,0-2.25,2A.14.14,0,0,1,20.14,42.39Z"/><path class="cls-2" d="M29.69,8.46v2.13H26a5.83,5.83,0,0,0-5.87,5.89v6.39a8.29,8.29,0,0,1,7.39-2.69v2.07h-.4a10.09,10.09,0,0,0-2.74.22,5.83,5.83,0,0,0-4.25,5.62V36H18v-.29q0-9.67,0-19.33a7.94,7.94,0,0,1,6.57-7.82A10.54,10.54,0,0,1,26,8.47C27.21,8.45,28.43,8.46,29.69,8.46Z"/><path class="cls-2" d="M6.38,22.25V20.18a8.26,8.26,0,0,1,7.38,2.67c0-.12,0-.18,0-.25,0-2.12,0-4.23,0-6.35A5.83,5.83,0,0,0,9.05,10.7a9.08,9.08,0,0,0-1.28-.11H4.27V8.5l.06,0c1.52,0,3.05-.06,4.56.06a7.86,7.86,0,0,1,6.84,6.19,9,9,0,0,1,.18,1.79c0,6.39,0,12.77,0,19.16V36H13.79V28.18a5.82,5.82,0,0,0-5-5.86,7.77,7.77,0,0,0-1-.07C7.38,22.24,6.89,22.25,6.38,22.25Z"/><path class="cls-2" d="M89.77,32.37v4.12c0,.56.17.76.72.86a6,6,0,0,0,.74.07c.19,0,.28.06.26.26s0,.31,0,.48H85.4v-.71c.31,0,.63-.05.95-.1.66-.08.81-.26.81-.93v-9c0-.64-.16-.82-.81-.91-.31,0-.62-.06-.95-.09v-.71h.3c2,0,4,0,6,0a6.92,6.92,0,0,1,2.9.57,2.53,2.53,0,0,1,1.6,2.17,2.56,2.56,0,0,1-1.34,2.68,15.32,15.32,0,0,1-1.79.67l-.24.06c.47.09.9.14,1.31.24A2.27,2.27,0,0,1,96,34.28c.09.65.18,1.29.29,1.93.14.89.47,1.19,1.35,1.26l.39,0c0,.22,0,.43,0,.63s-.11.13-.17.14a10.78,10.78,0,0,1-2.89-.12,1.69,1.69,0,0,1-1.43-1.73c-.06-.69-.12-1.39-.17-2.08-.09-1.32-.59-1.85-1.89-2C90.89,32.33,90.35,32.37,89.77,32.37Zm0-5.87v5.1c.72,0,1.43,0,2.13-.13A1.64,1.64,0,0,0,93.43,30a7.5,7.5,0,0,0,0-1.57A1.7,1.7,0,0,0,92,26.68C91.25,26.56,90.53,26.56,89.79,26.5Z"/><path class="cls-2" d="M98.45,38.17c0-.05,0-.06,0-.08,0-.65,0-.64.59-.69a3.52,3.52,0,0,0,.65-.1.61.61,0,0,0,.54-.7V27.43c0-.58-.17-.79-.76-.87-.33,0-.66-.07-1-.1v-.71h.32c1.89,0,3.79,0,5.68,0a7.69,7.69,0,0,1,4.11,1.08,5.08,5.08,0,0,1,2.33,3.75,7.73,7.73,0,0,1-.43,4,5.33,5.33,0,0,1-4.1,3.38,8.71,8.71,0,0,1-1.76.2c-2,0-4,0-5.92,0Zm4.38-11.61c0,.08,0,.14,0,.21V37.14c0,.21.07.26.26.25.58,0,1.15,0,1.73,0a3,3,0,0,0,3-2.43,10.9,10.9,0,0,0,.3-2,10.56,10.56,0,0,0-.25-3.59,3.37,3.37,0,0,0-2.43-2.62A9.67,9.67,0,0,0,102.83,26.56Z"/><path class="cls-2" d="M81.94,14.75a7.24,7.24,0,0,1,1.38-4.34,5.6,5.6,0,0,1,4-2.19,6.71,6.71,0,0,1,3,.25,5.31,5.31,0,0,1,3.57,3.37,7.6,7.6,0,0,1-.3,6.26,5.53,5.53,0,0,1-4.51,3,6.44,6.44,0,0,1-3.72-.55,5.52,5.52,0,0,1-3.09-4.09C82.05,15.93,82,15.33,81.94,14.75Zm9.52,0c0-.71-.08-1.43-.17-2.14a6,6,0,0,0-.77-2.32,3,3,0,0,0-4.47-.5,4,4,0,0,0-.84,1.61,13.14,13.14,0,0,0-.35,3.9,9.63,9.63,0,0,0,.41,2.77,2.93,2.93,0,0,0,3.47,2.28,2.67,2.67,0,0,0,2.21-2A11.83,11.83,0,0,0,91.46,14.74Z"/><path class="cls-2" d="M95.6,9.16V8.48h3.73a.43.43,0,0,1,.4.2l6.43,8.46.23.29c0-.14,0-.19,0-.24,0-1.89,0-3.78,0-5.66a4.91,4.91,0,0,0-.06-.66c-.15-1-.62-1.43-1.79-1.62-.32-.05-.37-.17-.34-.44a3,3,0,0,0,0-.3h4.93a5.42,5.42,0,0,1,0,.57s-.1.12-.16.14c-1.27.29-1.61.67-1.62,2,0,3.18,0,6.37,0,9.56v.38c-.44,0-.85,0-1.27,0-.08,0-.16-.12-.22-.19l-7-9.27a1.59,1.59,0,0,0-.37-.36v.27q0,3.16,0,6.32a5.65,5.65,0,0,0,.1,1,1.38,1.38,0,0,0,1,1.12c.3.09.61.15.93.23v.67H95.59a4.51,4.51,0,0,1,0-.52c0-.07.11-.14.18-.2a.5.5,0,0,1,.13,0c1.15-.25,1.57-.7,1.59-1.87,0-2.57,0-5.15,0-7.72a1.23,1.23,0,0,0-1-1.22C96.22,9.25,95.93,9.22,95.6,9.16Z"/><path class="cls-2" d="M58.55,9.28v4.84A5.13,5.13,0,0,0,60.34,14a1.38,1.38,0,0,0,.81-.81,3.19,3.19,0,0,0,.3-.74c.07-.25.18-.35.44-.31a1.82,1.82,0,0,0,.33,0v4.8h-.65c-.12-.3-.24-.61-.37-.92a1.53,1.53,0,0,0-1.46-1H58.55v5.09c.48,0,1,0,1.44,0A13.77,13.77,0,0,0,61.56,20a3,3,0,0,0,2.38-1.89c.22-.49.41-1,.62-1.52h.8l-.15,4.33H54.14v-.7c.34,0,.69-.07,1-.13.6-.1.73-.26.73-.85,0-3,0-6.07,0-9.1,0-.54-.11-.7-.65-.8-.35-.07-.72-.09-1.1-.14V8.48H64.7l.12,3.93c-.78.09-.78.09-1-.59-.13-.34-.27-.68-.43-1A2.52,2.52,0,0,0,61,9.29C60.21,9.25,59.4,9.28,58.55,9.28Z"/><path class="cls-2" d="M120.82,25.36v3.78a4.8,4.8,0,0,1-.66,0,.43.43,0,0,1-.23-.23,5.67,5.67,0,0,0-1.44-2,2.46,2.46,0,0,0-2.91-.26,1.89,1.89,0,0,0,.07,3.07,18.49,18.49,0,0,0,1.94.82c.61.24,1.24.42,1.82.7,1.79.86,2.32,2.27,1.85,4.25a3.83,3.83,0,0,1-3.57,3,7.8,7.8,0,0,1-3.52-.47.35.35,0,0,0-.22,0,.47.47,0,0,0-.15.13,1.06,1.06,0,0,1-1.17.38V34.29a4.85,4.85,0,0,1,.66,0,.39.39,0,0,1,.23.19,8,8,0,0,0,1.35,2,3.09,3.09,0,0,0,3.11,1,2,2,0,0,0,1.18-3.18,3.11,3.11,0,0,0-1.09-.76c-.77-.33-1.58-.58-2.37-.87a5.21,5.21,0,0,1-2.13-1.24A3.31,3.31,0,0,1,113,28a3.7,3.7,0,0,1,3.16-2.45,6.28,6.28,0,0,1,3.24.34c.09,0,.21,0,.31-.06s0,0,.06-.06C120.18,25.31,120.18,25.31,120.82,25.36Z"/><path class="cls-2" d="M70.26,9.17V8.49H80.8v4a4.69,4.69,0,0,1-.59,0c-.08,0-.18-.11-.22-.19-.18-.41-.32-.84-.51-1.24A2.78,2.78,0,0,0,77,9.31c-.76,0-1.52,0-2.31,0v5a4.41,4.41,0,0,0,1.91-.17,1.77,1.77,0,0,0,.62-.6,4.05,4.05,0,0,0,.32-.7c.16-.42.15-.42.59-.41h.21v4.71a3,3,0,0,1-.52,0,.39.39,0,0,1-.2-.2c-.14-.33-.25-.68-.41-1a1.23,1.23,0,0,0-1.09-.77c-.47,0-.94,0-1.45,0v4.21c0,.46.13.63.6.72s.83.1,1.27.15v.68H70.26v-.7c.37-.05.72-.07,1.06-.13.57-.1.71-.28.71-.85v-9c0-.6-.12-.76-.72-.87C71,9.23,70.63,9.21,70.26,9.17Z"/><path class="cls-2" d="M85,37.49v.67H78.72v-.65c.4-.07.8-.12,1.19-.22a.66.66,0,0,0,.52-1c-.27-.86-.57-1.72-.87-2.57a.28.28,0,0,0-.21-.13c-1.22,0-2.43,0-3.65,0a.28.28,0,0,0-.21.13c-.32.87-.64,1.74-.92,2.62-.14.44,0,.71.47.87s.59.16.91.25v.66H71.63a4.34,4.34,0,0,1,0-.51c0-.08.1-.2.17-.21a2.42,2.42,0,0,0,1.7-1.61c.59-1.47,1.17-2.94,1.76-4.42.73-1.86,1.47-3.73,2.19-5.6a.34.34,0,0,1,.4-.26,11,11,0,0,0,1.15,0c.21,0,.29.06.36.26q1.77,4.95,3.55,9.89C83.39,37,83.53,37.15,85,37.49Zm-7.34-9.33h-.12l-1.75,4.65h3.43C78.72,31.24,78.2,29.7,77.69,28.16Z"/><path class="cls-2" d="M45.84,37.48v.68H41.55v-.6a4.62,4.62,0,0,0,1.13-.67,3.91,3.91,0,0,0,.8-1.27c1.12-2.76,2.2-5.54,3.29-8.31.2-.51.41-1,.61-1.54.06-.16.13-.23.31-.22.39,0,.78,0,1.17,0s.35.08.43.3q1.55,4.35,3.11,8.68c.18.5.37,1,.53,1.51a1.81,1.81,0,0,0,1.5,1.33l.49.11v.68h-6.3V37.5l.94-.14a2,2,0,0,0,.41-.13.61.61,0,0,0,.4-.79c-.28-.9-.6-1.79-.91-2.68a.28.28,0,0,0-.21-.13c-1.22,0-2.43,0-3.65,0a.3.3,0,0,0-.21.13c-.3.81-.62,1.61-.88,2.42s0,1,.66,1.15C45.38,37.39,45.61,37.43,45.84,37.48Zm3.31-4.67-1.56-4.65h-.11l-1.75,4.66Z"/><path class="cls-2" d="M114.3,9.29a2.38,2.38,0,0,0-2.65,1.32c-.29.58-.55,1.18-.79,1.78a.35.35,0,0,1-.41.27c-.5,0-.5,0-.49-.52,0-1.13.06-2.26.08-3.39,0-.2,0-.29.27-.29h10.86c0,1.38.08,2.75.12,4.18-.25,0-.47,0-.7,0-.06,0-.13-.12-.16-.2-.29-.65-.53-1.33-.88-1.95a2.34,2.34,0,0,0-2.63-1.2v9.89c0,.58.16.77.73.86.41.07.81.1,1.23.14v.7h-6.54v-.7c.42,0,.84-.07,1.25-.14s.73-.29.73-.84V9.53A2.12,2.12,0,0,0,114.3,9.29Z"/><path class="cls-2" d="M42.46,8.48H48.6v.69c-.41.05-.81.08-1.2.16a.6.6,0,0,0-.57.69v9.91a.62.62,0,0,0,0,.12,7.35,7.35,0,0,0,3.26-.35,3.53,3.53,0,0,0,1.66-2c.2-.47.37-1,.55-1.43h.81L53,20.89H42.46v-.7c.35-.05.7-.07,1-.13.57-.09.72-.28.72-.84v-9c0-.61-.13-.77-.74-.89L43,9.22l-.51,0Z"/><path class="cls-2" d="M15.92,4.5V0H18V4.51a14.38,14.38,0,0,1,6.35-2.32,1,1,0,0,1,0,.17c0,.58,0,1.17,0,1.75,0,.14,0,.23-.19.26A12,12,0,0,0,17,8.16l-.05,0c-.37-.35-.74-.71-1.13-1A12.09,12.09,0,0,0,9.78,4.36c-.09,0-.22-.12-.22-.18,0-.65,0-1.3,0-2A14.49,14.49,0,0,1,15.92,4.5Z"/><path class="cls-2" d="M122.73,20.89a2.12,2.12,0,0,1,0-.24c0-.15,0-.3,0-.46l1.07-.13c.56-.09.72-.28.72-.84V10.14c0-.56-.13-.73-.69-.84-.35-.06-.71-.09-1.09-.13V8.48h6.15v.7l-.8.08a2.57,2.57,0,0,0-.4.06.64.64,0,0,0-.57.74v9.16c0,.55.16.75.72.84l1.06.13v.7Z"/><path class="cls-2" d="M125.81,25.11a2.62,2.62,0,1,1-2.62,2.56A2.6,2.6,0,0,1,125.81,25.11Zm0,.47A2.15,2.15,0,1,0,128,27.74,2.16,2.16,0,0,0,125.81,25.58Z"/><path class="cls-2" d="M124.38,29c.06,0,.11-.1.17-.1.21,0,.24-.13.24-.31,0-.59,0-1.18,0-1.78,0-.21,0-.33-.27-.34,0,0-.1-.06-.21-.15.65,0,1.2,0,1.75,0s.71.25.75.54-.09.57-.64.82c.49.05.59.36.62.73s0,.48.37.52c0,0,0,.07.08.18a5.48,5.48,0,0,1-.76-.07.51.51,0,0,1-.25-.27.92.92,0,0,1,0-.37c0-.56-.2-.69-.8-.59,0,.29,0,.58,0,.88,0,.06.12.13.19.19a1.76,1.76,0,0,0,.2.09l0,.08h-1.35Zm1-2.51v1.1c.28,0,.58.08.71-.2a.87.87,0,0,0,0-.67C126,26.46,125.68,26.51,125.4,26.51Z"/><path class="cls-2" d="M126.17,26.52a1.1,1.1,0,0,0-.94,0"/><path class="cls-2" d="M125.14,27.7c.34.1.72-.11,1,.14"/><path class="cls-2" d="M125,28.85l-.52.14"/><path class="cls-2" d="M125.17,28.85l.52.14"/><path class="cls-2" d="M9.7,2.33l.13.18"/><line class="cls-3" y1="47.16" x2="128.88" y2="47.16"/></g></g></svg>