<svg xmlns="http://www.w3.org/2000/svg" viewBox="0 0 118.8 99.99"><defs><style>.cls-1{font-size:16px;font-family:OpenSans-Regular, Open Sans;}.cls-1,.cls-2{fill:#fff;}.cls-3{fill:none;stroke:#fff;stroke-miterlimit:10;}</style></defs><g id="Livello_2" data-name="Livello 2"><g id="Widget_Awards" data-name="Widget Awards"><text class="cls-1" transform="translate(41.1 95.66)">2015</text><path class="cls-2" d="M76,32.89l-2.1,4.5a2.49,2.49,0,1,1-4.51-2.1l2.1-4.5A2.49,2.49,0,0,1,76,32.89"/><path class="cls-2" d="M32.47,36.37V21.46a2.49,2.49,0,1,1,5,0V36.37a2.49,2.49,0,0,1-5,0"/><path class="cls-2" d="M46.09,38.85h-5a2.49,2.49,0,1,1,0-5h5a2.49,2.49,0,0,1,0,5"/><path class="cls-2" d="M63.15,38.85H54.59a2.49,2.49,0,0,1,0-5h8.56a2.49,2.49,0,1,1,0,5"/><path class="cls-2" d="M63.15,31.4H54.59a2.49,2.49,0,0,1,0-5h8.56a2.49,2.49,0,1,1,0,5"/><path class="cls-2" d="M63.15,23.94H54.59a2.49,2.49,0,0,1,0-5h8.56a2.49,2.49,0,1,1,0,5"/><path class="cls-2" d="M81.17,37.39,74.24,22.53a2.49,2.49,0,1,1,4.51-2.1l6.93,14.86a2.49,2.49,0,1,1-4.51,2.1"/><path class="cls-2" d="M113.54,60.61H118c-.07-1.48-.9-2.42-2.18-2.42s-2,.85-2.23,2.42m4.38,1.64h.79a2.77,2.77,0,0,1-2.89,2.45c-1.9,0-3.13-1.39-3.13-3.54S114,57.5,115.8,57.5a2.82,2.82,0,0,1,2.66,1.78,4.83,4.83,0,0,1,.34,2h-5.27c0,1.74.87,2.7,2.3,2.7a2,2,0,0,0,2.09-1.75M.83,64.5H0V55.07H.83Zm6.51-2.25h.79a2.77,2.77,0,0,1-2.9,2.45c-1.89,0-3.12-1.39-3.12-3.54S3.39,57.5,5.22,57.5a2.81,2.81,0,0,1,2.65,1.78,4.83,4.83,0,0,1,.34,2H2.94C3,63,3.82,64,5.25,64a2,2,0,0,0,2.09-1.75M3,60.61H7.37c-.07-1.48-.91-2.42-2.18-2.42S3.14,59,3,60.61M15.25,63.8v.65a1.76,1.76,0,0,1-.66.1c-.65,0-.88-.34-.88-1.24a2.77,2.77,0,0,1-2.57,1.39c-1.39,0-2.22-.74-2.22-1.93a1.86,1.86,0,0,1,1.34-1.86,8,8,0,0,1,2.33-.37c.82-.07,1.08-.28,1.08-.86,0-1-.55-1.49-1.78-1.49A1.6,1.6,0,0,0,10,59.79h-.8C9.3,58.32,10.29,57.5,12,57.5c1.25,0,2.18.48,2.4,1.24a3.51,3.51,0,0,1,.1,1.14v3c0,.86.06,1,.46,1a.81.81,0,0,0,.32-.06m-1.58-1.9V60.78c-.27.24-.47.3-1.88.48s-2,.61-2,1.43S10.39,64,11.34,64a2.16,2.16,0,0,0,2.33-2.12m8.38-6.83V64.5h-.78V63.14a2.47,2.47,0,0,1-2.45,1.56c-1.89,0-3.08-1.4-3.08-3.61s1.2-3.59,3.06-3.59A2.45,2.45,0,0,1,21.21,59V55.07Zm-3.2,3.12c-1.37,0-2.27,1.13-2.27,2.89S17.48,64,18.89,64s2.35-1.11,2.35-2.9-.9-2.91-2.39-2.91m5.66-1.79h-.84V55.07h.84Zm0,8.1h-.84V57.7h.84Zm2.39-6.8V59a3,3,0,0,1,.56-.76,2.55,2.55,0,0,1,1.86-.71,2.32,2.32,0,0,1,2,.93,2.75,2.75,0,0,1,.36,1.7V64.5h-.84V60.38a3.17,3.17,0,0,0-.17-1.31,1.57,1.57,0,0,0-1.54-.85,2,2,0,0,0-1.86,1.06,3.52,3.52,0,0,0-.31,1.8V64.5h-.84V57.7ZM39,57.7v6.15a3.91,3.91,0,0,1-.41,2.09A2.9,2.9,0,0,1,36,67.17c-1.67,0-2.69-.75-2.79-2.06H34c.14.91.79,1.38,2,1.38,1.56,0,2.24-.75,2.24-2.44V62.91a2.37,2.37,0,0,1-2.35,1.49c-1.79,0-3-1.33-3-3.38s1.2-3.52,3-3.52A2.43,2.43,0,0,1,38.25,59V57.7Zm-3.11.49c-1.32,0-2.18,1.1-2.18,2.76s.86,2.76,2.21,2.76,2.24-1.11,2.24-2.8-.86-2.72-2.27-2.72m12.7,4.19h1.8a3.15,3.15,0,0,1-3.21,2.3,3.34,3.34,0,0,1-3.49-3.56,3.43,3.43,0,0,1,3.43-3.63c2,0,3.38,1.51,3.38,3.77v.31h-4.9c0,1.16.59,1.77,1.62,1.77a1.36,1.36,0,0,0,1.37-1m-3-2h3c-.11-1-.63-1.54-1.47-1.54a1.53,1.53,0,0,0-1.52,1.54m12.52-5.3V64.5H56.37v-.88a2.24,2.24,0,0,1-2.06,1.06c-1.88,0-3.1-1.41-3.1-3.63s1.19-3.58,3-3.58a2.37,2.37,0,0,1,2.07,1V55.07Zm-3.46,3.86c-1,0-1.6.79-1.6,2.09s.61,2.13,1.63,2.13,1.64-.77,1.64-2.1-.61-2.12-1.67-2.12m11.25-1.26v6a3.63,3.63,0,0,1-.45,2.15A3.23,3.23,0,0,1,62.56,67c-2,0-3-.7-3.19-2.13h1.88c.14.61.55.87,1.35.87,1.09,0,1.53-.51,1.53-1.76v-.78a2.33,2.33,0,0,1-2.08,1.05c-1.78,0-2.91-1.31-2.91-3.36s1.19-3.44,3-3.44a2.21,2.21,0,0,1,2,1.08v-.9Zm-3.41,1.27c-.93,0-1.51.75-1.51,2s.59,2,1.56,2,1.56-.78,1.56-2-.6-1.94-1.61-1.94m9.36,3.44h1.79a3.14,3.14,0,0,1-3.2,2.3A3.34,3.34,0,0,1,67,61.12a3.44,3.44,0,0,1,3.44-3.63c2,0,3.38,1.51,3.38,3.77v.31H68.89c0,1.16.6,1.77,1.63,1.77a1.37,1.37,0,0,0,1.37-1m-3-2h3c-.11-1-.64-1.54-1.47-1.54a1.54,1.54,0,0,0-1.53,1.54m15.4,3.43v.65a1.81,1.81,0,0,1-.67.1c-.65,0-.87-.34-.87-1.24a2.79,2.79,0,0,1-2.58,1.39C78.79,64.7,78,64,78,62.77a1.87,1.87,0,0,1,1.34-1.86,8.22,8.22,0,0,1,2.34-.37c.82-.07,1.07-.28,1.07-.86,0-1-.55-1.49-1.78-1.49a1.59,1.59,0,0,0-1.85,1.6h-.81c.08-1.47,1.06-2.29,2.75-2.29,1.24,0,2.17.48,2.4,1.24a3.82,3.82,0,0,1,.1,1.14v3c0,.86.06,1,.45,1a.86.86,0,0,0,.33-.06M82.7,61.9V60.78c-.27.24-.46.3-1.88.48s-2,.61-2,1.43S79.42,64,80.37,64A2.15,2.15,0,0,0,82.7,61.9M86,64.5h-.83V55.07H86Zm2.45,0h-.84V55.07h.84Zm2.44-8.1H90V55.07h.83Zm0,8.1H90V57.7h.83Zm7.44-.7v.65a1.76,1.76,0,0,1-.66.1c-.66,0-.88-.34-.88-1.24a2.77,2.77,0,0,1-2.57,1.39C92.78,64.7,92,64,92,62.77a1.86,1.86,0,0,1,1.34-1.86,8,8,0,0,1,2.33-.37c.82-.07,1.08-.28,1.08-.86,0-1-.55-1.49-1.78-1.49a1.6,1.6,0,0,0-1.86,1.6h-.8c.07-1.47,1.06-2.29,2.74-2.29,1.24,0,2.18.48,2.4,1.24a3.51,3.51,0,0,1,.1,1.14v3c0,.86.06,1,.45,1a.83.83,0,0,0,.33-.06M96.7,61.9V60.78c-.27.24-.47.3-1.88.48s-2,.61-2,1.43S93.42,64,94.36,64A2.16,2.16,0,0,0,96.7,61.9m3.19-4.2V59a2.79,2.79,0,0,1,.56-.76,2.54,2.54,0,0,1,1.85-.71,2.32,2.32,0,0,1,2,.93,2.75,2.75,0,0,1,.36,1.7V64.5h-.84V60.38a3.17,3.17,0,0,0-.17-1.31,1.57,1.57,0,0,0-1.54-.85,2,2,0,0,0-1.87,1.06,3.52,3.52,0,0,0-.31,1.8V64.5h-.83V57.7Zm11.18,4.37h.83A2.77,2.77,0,0,1,109,64.7c-1.89,0-3.13-1.4-3.13-3.54s1.24-3.66,3.16-3.66a2.56,2.56,0,0,1,2.8,2.35H111a1.83,1.83,0,0,0-1.93-1.66c-1.43,0-2.35,1.13-2.35,2.9S107.62,64,109,64a2,2,0,0,0,2.07-1.93"/><path class="cls-2" d="M55.45,0H56a47,47,0,0,1,47,47v.57A52.19,52.19,0,0,0,55.45,0"/><path class="cls-2" d="M86,46.46h-.79v-4H86ZM72,43.56V46.1a1.51,1.51,0,0,1-.19.91,1.37,1.37,0,0,1-1.24.52c-.83,0-1.27-.3-1.35-.9h.8c.06.26.23.37.57.37s.65-.22.65-.75v-.33a1,1,0,0,1-.88.45c-.76,0-1.23-.55-1.23-1.42a1.29,1.29,0,0,1,1.26-1.46.93.93,0,0,1,.86.46v-.39Zm-1.44.54c-.39,0-.64.32-.64.83s.25.85.66.85.66-.33.66-.86-.25-.82-.68-.82m3.13,2.36h-.79v-4h.79Zm2.23-3A1.52,1.52,0,1,1,74.44,45,1.42,1.42,0,0,1,76,43.49m0,.58c-.42,0-.69.36-.69.94s.26.94.71.94.69-.35.69-.94-.26-.94-.71-.94m3-1.61v1.46a1.08,1.08,0,0,1,.91-.44c.74,0,1.24.61,1.24,1.5s-.52,1.55-1.28,1.55a1,1,0,0,1-.9-.44v.37h-.76v-4Zm.66,1.64c-.42,0-.68.35-.68.89s.26.9.7.9.68-.36.68-.9-.27-.89-.7-.89m4.86,2.36h-.81a.8.8,0,0,1,0-.29,1.33,1.33,0,0,1-1,.36c-.64,0-1-.33-1-.87a.78.78,0,0,1,.52-.77,3.61,3.61,0,0,1,.74-.15c.62-.07.7-.11.7-.34s-.17-.38-.52-.38-.52.11-.57.43h-.75c.05-.63.5-1,1.34-1a1.61,1.61,0,0,1,1,.27c.2.16.25.32.25.72v1.18a2,2,0,0,0,.1.8m-.87-1.09V45a1.1,1.1,0,0,1-.55.15c-.45.07-.59.18-.59.44a.39.39,0,0,0,.44.39.77.77,0,0,0,.57-.24.52.52,0,0,0,.13-.41"/><line class="cls-3" y1="71.78" x2="118.8" y2="71.78"/></g></g></svg>