<svg xmlns="http://www.w3.org/2000/svg" viewBox="0 0 20 20"><defs><style>.cls-1{fill:#fff;}</style></defs><g id="Livello_2" data-name="Livello 2"><g id="Menu_TOP" data-name="Menu TOP"><path class="cls-1" d="M17.07,17.07A9.66,9.66,0,0,1,10,20a9.66,9.66,0,0,1-7.07-2.93A9.66,9.66,0,0,1,0,10,9.66,9.66,0,0,1,2.93,2.93,9.66,9.66,0,0,1,10,0a9.66,9.66,0,0,1,7.07,2.93A9.66,9.66,0,0,1,20,10,9.66,9.66,0,0,1,17.07,17.07ZM15.51,4.49A7.51,7.51,0,0,0,10,2.21,7.51,7.51,0,0,0,4.49,4.49,7.51,7.51,0,0,0,2.21,10a7.51,7.51,0,0,0,2.28,5.51A7.51,7.51,0,0,0,10,17.79a7.51,7.51,0,0,0,5.51-2.28A7.51,7.51,0,0,0,17.79,10,7.51,7.51,0,0,0,15.51,4.49ZM6,6.27a.86.86,0,0,1,.28-.64,1,1,0,0,1,.68-.27c.64,0,1,.3,1,.91s-.32.88-1,.88S6,6.85,6,6.27Zm1.84,7.41H6V7.89H7.81Zm4.51-5.95a1.82,1.82,0,0,1,1.55.7,3,3,0,0,1,.53,1.84v3.41H12.59V10.45c0-.85-.3-1.28-.88-1.28a1,1,0,0,0-.74.31,1.21,1.21,0,0,0-.28.84v3.36H8.88V9.73c0-1,0-1.61,0-1.84H10.4l.11.78A2,2,0,0,1,12.32,7.73Z"/></g></g></svg>