<svg xmlns="http://www.w3.org/2000/svg" xmlns:xlink="http://www.w3.org/1999/xlink" viewBox="0 0 182.17 54"><defs><style>.cls-1{fill:url(#radial-gradient);}.cls-2{fill:none;stroke:#000;stroke-width:0.38px;}</style><radialGradient id="radial-gradient" cx="-108.58" cy="4.25" r="54.42" gradientTransform="translate(121.91 7.01) scale(0.95)" gradientUnits="userSpaceOnUse"><stop offset="0" stop-color="#046aa9"/><stop offset="1"/></radialGradient></defs><g id="Livello_2" data-name="Livello 2"><g id="Menu_TOP" data-name="Menu TOP"><g id="logo"><path d="M64.78,29.18a4.77,4.77,0,0,1,2.82-4.1,3.66,3.66,0,0,1-.9-2.36c0-1.34,1.48-3.12,3.94-3.12a5.13,5.13,0,0,1,2.24.42.4.4,0,0,1,.24.44A15.91,15.91,0,0,1,73,22.4c-.06.26-.1.3-.18.3s-.1-.06-.1-.32A2,2,0,0,0,72.08,21a2.49,2.49,0,0,0-1.8-.72A2.05,2.05,0,0,0,68,22.4c0,1.32.92,2.44,2.84,4.36.62.62,2.88,2.58,3.46,3A4.85,4.85,0,0,0,75.26,27a1.1,1.1,0,0,0-.34-.84,1.36,1.36,0,0,0-.9-.26c-.12,0-.22,0-.22-.12s.16-.12.3-.12a17.8,17.8,0,0,1,2.2.12c.28,0,.32.16.32.34a7.18,7.18,0,0,1-1.82,4,16.16,16.16,0,0,0,2.54,1.68,5.43,5.43,0,0,0,2.2.68c.16,0,.26,0,.26.12s-.16.12-.32.12h-1.8c-1.36,0-1.8-.12-3.82-1.6a6.36,6.36,0,0,1-4.6,1.82C66,32.92,64.78,30.66,64.78,29.18Zm8.6,1.58c-1-.78-2.86-2.38-3.34-2.86a29.09,29.09,0,0,1-2.16-2.38,3.14,3.14,0,0,0-1.58,2.86A3.48,3.48,0,0,0,69.9,32,4.92,4.92,0,0,0,73.38,30.76Z"/><path d="M89.4,20.18c.22-.56.3-.66.42-.66s.24.24.42.62c.32.72,3.14,7.74,4.22,10.32C95.1,32,95.58,32.2,96,32.32a2.45,2.45,0,0,0,.7.1c.1,0,.22,0,.22.14s-.2.14-.4.14-1.56,0-2.78,0c-.34,0-.62,0-.62-.12s0-.08.12-.12a.32.32,0,0,0,.16-.46l-1.58-3.9c0-.08-.06-.1-.16-.1H87.56a.19.19,0,0,0-.18.14l-1,2.72A3.52,3.52,0,0,0,86.12,32c0,.34.3.46.6.46h.16c.14,0,.18.06.18.14s-.1.14-.26.14c-.42,0-1.38-.06-1.58-.06s-1.06.06-1.78.06c-.22,0-.34,0-.34-.14a.15.15,0,0,1,.16-.14l.52,0c.8-.1,1.14-.7,1.48-1.56Zm2,7.08c.08,0,.08,0,.06-.12l-1.74-4.66q-.15-.39-.3,0l-1.64,4.66q0,.12.06.12Z"/><path d="M98.11,32.46c-.24-.12-.26-.18-.26-.64,0-.84.08-1.52.1-1.8s0-.28.14-.28.16.06.16.2a2.55,2.55,0,0,0,.06.62c.28,1.24,1.6,1.68,2.78,1.68,1.74,0,2.64-1,2.64-2.26s-.66-1.8-2.22-3l-.8-.6C98.81,25,98.19,24,98.19,22.78c0-2,1.58-3.2,3.9-3.2a8.52,8.52,0,0,1,1.82.2,2.28,2.28,0,0,0,.62.08c.14,0,.18,0,.18.12s-.08.64-.08,1.8c0,.26,0,.38-.14.38s-.14-.08-.16-.22a3.15,3.15,0,0,0-.26-.84c-.12-.2-.7-.84-2.28-.84-1.28,0-2.34.64-2.34,1.84s.54,1.7,2.28,2.88l.5.34c2.14,1.46,2.88,2.64,2.88,4.1a3.31,3.31,0,0,1-1.64,2.9,5.39,5.39,0,0,1-2.8.6A6.47,6.47,0,0,1,98.11,32.46Z"/><path d="M107.6,32.46c-.24-.12-.26-.18-.26-.64,0-.84.08-1.52.1-1.8s0-.28.14-.28.16.06.16.2a2.55,2.55,0,0,0,.06.62c.28,1.24,1.6,1.68,2.78,1.68,1.74,0,2.64-1,2.64-2.26s-.66-1.8-2.22-3l-.8-.6c-1.9-1.42-2.52-2.46-2.52-3.64,0-2,1.58-3.2,3.9-3.2a8.34,8.34,0,0,1,1.81.2,2.36,2.36,0,0,0,.62.08c.15,0,.19,0,.19.12a16,16,0,0,0-.09,1.8c0,.26,0,.38-.13.38s-.14-.08-.16-.22a3.15,3.15,0,0,0-.26-.84c-.12-.2-.7-.84-2.28-.84-1.28,0-2.34.64-2.34,1.84s.54,1.7,2.28,2.88l.5.34c2.13,1.46,2.88,2.64,2.88,4.1a3.31,3.31,0,0,1-1.64,2.9,5.39,5.39,0,0,1-2.8.6A6.47,6.47,0,0,1,107.6,32.46Z"/><path d="M123.55,19.6c4,0,7,2.42,7,6.38a6.81,6.81,0,0,1-7.06,6.94,6.52,6.52,0,0,1-6.88-6.68A6.73,6.73,0,0,1,123.55,19.6Zm.4,12.61c1.58,0,4.76-.83,4.76-5.75,0-4.08-2.48-6.22-5.26-6.22-2.94,0-5.06,1.84-5.06,5.54C118.39,29.74,120.77,32.21,124,32.21Z"/><path d="M134.46,31.1a6.38,6.38,0,0,1-2.14-5,6.71,6.71,0,0,1,2-4.64,7.26,7.26,0,0,1,5.36-1.82,17.27,17.27,0,0,1,2.56.2,12.59,12.59,0,0,0,1.8.26c.18,0,.22.08.22.18s0,.34-.08,1,0,1.5,0,1.74-.1.36-.2.36-.14-.12-.14-.36a2.21,2.21,0,0,0-.74-1.7,5.73,5.73,0,0,0-3.46-.94c-2.26,0-3.34.6-4,1.18A5.55,5.55,0,0,0,134,25.92a6.18,6.18,0,0,0,6.34,6.16c1.32,0,2.2-.1,2.9-.8a3.17,3.17,0,0,0,.68-1.42c0-.18.06-.24.18-.24s.16.12.16.24a17.84,17.84,0,0,1-.42,2.18c-.1.32-.14.38-.44.5a10.41,10.41,0,0,1-3.18.38A8.3,8.3,0,0,1,134.46,31.1Z"/><path d="M149.29,27.76c0,1.64,0,3,.08,3.68.06.5.12.82.64.9a7.16,7.16,0,0,0,.8.08.14.14,0,0,1,.14.14c0,.08-.08.14-.28.14-1,0-2.12-.06-2.2-.06s-1.2.06-1.74.06c-.18,0-.28,0-.28-.14a.14.14,0,0,1,.14-.14,2.52,2.52,0,0,0,.54-.08c.34-.08.4-.4.46-.9.08-.7.1-2,.1-3.68v-3c0-2.64,0-3.12,0-3.66s-.18-.84-.56-.92a3.15,3.15,0,0,0-.54-.06.15.15,0,0,1-.14-.14c0-.1.08-.14.28-.14.58,0,1.68,0,1.78,0s1.22,0,1.76,0c.2,0,.28,0,.28.14a.17.17,0,0,1-.14.14,2,2,0,0,0-.44,0c-.48.1-.58.34-.62.94s0,1,0,3.66Z"/><path d="M158.39,20.18c.22-.56.3-.66.42-.66s.24.24.42.62c.32.72,3.14,7.74,4.22,10.32.64,1.52,1.12,1.74,1.5,1.86a2.45,2.45,0,0,0,.7.1c.1,0,.22,0,.22.14s-.2.14-.4.14-1.56,0-2.78,0c-.34,0-.62,0-.62-.12s0-.08.12-.12a.32.32,0,0,0,.16-.46l-1.58-3.9c0-.08-.06-.1-.16-.1h-4.06a.19.19,0,0,0-.18.14l-1,2.72a3.52,3.52,0,0,0-.26,1.14c0,.34.3.46.6.46h.16c.14,0,.18.06.18.14s-.1.14-.26.14c-.42,0-1.38-.06-1.58-.06s-1.06.06-1.78.06c-.22,0-.34,0-.34-.14a.15.15,0,0,1,.16-.14l.52,0c.8-.1,1.14-.7,1.48-1.56Zm2,7.08c.08,0,.08,0,.06-.12l-1.74-4.66q-.15-.39-.3,0l-1.64,4.66q0,.12.06.12Z"/><path d="M171.05,27.76c0,1.64,0,3,.08,3.68.06.5.14.82.68.9a6.73,6.73,0,0,0,.8.08.12.12,0,0,1,.14.14c0,.08-.08.14-.28.14-1,0-2.08-.06-2.18-.06s-1.3.06-1.82.06c-.2,0-.28,0-.28-.14s0-.12.14-.12a2.34,2.34,0,0,0,.52-.08c.36-.08.46-.42.52-.92.08-.7.08-2,.08-3.68V20.62l-2.54,0c-1.1,0-1.52.14-1.78.54a3.52,3.52,0,0,0-.28.54c0,.14-.1.16-.18.16a.13.13,0,0,1-.12-.14c0-.18.36-1.7.39-1.84s.11-.32.17-.32a6.12,6.12,0,0,0,.78.2c.5.06,1.18.08,1.38.08h6.64a8.75,8.75,0,0,0,1.26-.08c.26,0,.42-.08.5-.08s.08.1.08.2c0,.52-.06,1.74-.06,1.94s-.08.22-.16.22-.12-.06-.14-.3l0-.18c-.06-.52-.44-.9-2.12-.94l-2.2,0Z"/><path d="M180.51,27.76c0,1.64,0,3,.08,3.68.06.5.12.82.64.9a7.16,7.16,0,0,0,.8.08.14.14,0,0,1,.14.14c0,.08-.08.14-.28.14-1,0-2.12-.06-2.2-.06s-1.2.06-1.74.06c-.18,0-.28,0-.28-.14a.14.14,0,0,1,.14-.14,2.52,2.52,0,0,0,.54-.08c.34-.08.4-.4.46-.9.08-.7.1-2,.1-3.68v-3c0-2.64,0-3.12,0-3.66s-.18-.84-.56-.92a3.15,3.15,0,0,0-.54-.06.15.15,0,0,1-.14-.14c0-.1.08-.14.28-.14.58,0,1.68,0,1.78,0s1.22,0,1.76,0c.2,0,.28,0,.28.14a.17.17,0,0,1-.14.14,2,2,0,0,0-.44,0c-.48.1-.58.34-.62.94s0,1,0,3.66Z"/><path d="M72.22,13c1.21-2.71,4-9.61,4.4-11.06a3.3,3.3,0,0,0,.19-.76.42.42,0,0,0-.28-.43,2.21,2.21,0,0,0-.72-.08c-.12,0-.24-.07-.24-.16s.15-.17.48-.17c.83,0,1.79,0,2,0s1,0,1.64,0c.21,0,.33,0,.33.14s-.07.19-.23.19a1.92,1.92,0,0,0-1,.24c-.29.19-.62.48-1.17,1.86-.24.57-1.26,3-2.33,5.47-1.29,3-2.22,5.15-2.69,6.14C72.07,15.64,72,16,71.74,16s-.38-.26-.78-1.24L65.82,2.31C65.34,1.17,65.05,1,64.36.79a3.61,3.61,0,0,0-.81-.08.17.17,0,0,1-.16-.19c0-.11.21-.14.55-.14,1,0,2.18,0,2.45,0s1.14,0,2,0c.38,0,.57,0,.57.14a.19.19,0,0,1-.21.19,2.66,2.66,0,0,0-.77.1.33.33,0,0,0-.23.36,8.4,8.4,0,0,0,.57,1.69Z"/><path d="M84.23.79c.27-.67.36-.79.5-.79s.29.29.5.74C85.62,1.6,89,10,90.26,13c.76,1.81,1.33,2.07,1.78,2.21a2.78,2.78,0,0,0,.84.12c.11,0,.26.05.26.17s-.24.17-.48.17-1.86,0-3.31,0c-.4,0-.74,0-.74-.14s0-.1.15-.15a.37.37,0,0,0,.19-.54l-1.88-4.65c0-.09-.07-.11-.19-.11H82a.21.21,0,0,0-.21.16l-1.19,3.24a4.2,4.2,0,0,0-.31,1.36c0,.4.36.54.72.54h.19c.16,0,.21.08.21.17s-.12.17-.31.17c-.5,0-1.64-.08-1.88-.08s-1.26.08-2.12.08c-.26,0-.4,0-.4-.17a.19.19,0,0,1,.19-.17l.62,0c1-.12,1.35-.84,1.76-1.86Zm2.34,8.42c.09,0,.09,0,.07-.14L84.57,3.52q-.18-.47-.36,0L82.26,9.07c0,.1,0,.14.07.14Z"/><path d="M94.58,15.4c-.29-.14-.31-.21-.31-.76,0-1,.1-1.81.12-2.14s0-.33.17-.33.19.06.19.23a3.11,3.11,0,0,0,.07.74c.33,1.48,1.9,2,3.31,2,2.07,0,3.14-1.17,3.14-2.69s-.79-2.14-2.64-3.52l-1-.72c-2.26-1.69-3-2.93-3-4.33,0-2.38,1.88-3.81,4.64-3.81a10,10,0,0,1,2.16.24,2.61,2.61,0,0,0,.74.1c.17,0,.22,0,.22.14a20.25,20.25,0,0,0-.1,2.14c0,.31,0,.45-.17.45s-.16-.09-.19-.26a3.62,3.62,0,0,0-.31-1c-.14-.24-.83-1-2.71-1-1.52,0-2.79.76-2.79,2.19s.65,2,2.72,3.43l.59.4c2.55,1.74,3.43,3.15,3.43,4.88a3.93,3.93,0,0,1-2,3.45,6.33,6.33,0,0,1-3.33.72A7.62,7.62,0,0,1,94.58,15.4Z"/><path d="M111.22.79c.26-.67.35-.79.5-.79s.28.29.5.74c.38.86,3.73,9.21,5,12.28.76,1.81,1.33,2.07,1.78,2.21a2.78,2.78,0,0,0,.84.12c.12,0,.26.05.26.17s-.24.17-.48.17-1.85,0-3.31,0c-.4,0-.73,0-.73-.14s0-.1.14-.15a.37.37,0,0,0,.19-.54l-1.88-4.65c0-.09-.07-.11-.19-.11H109a.22.22,0,0,0-.22.16l-1.19,3.24a4.2,4.2,0,0,0-.31,1.36c0,.4.36.54.72.54h.19c.17,0,.21.08.21.17s-.12.17-.31.17c-.5,0-1.64-.08-1.88-.08s-1.26.08-2.12.08c-.26,0-.4,0-.4-.17a.19.19,0,0,1,.19-.17l.62,0c1-.12,1.35-.84,1.76-1.86Zm2.33,8.42c.09,0,.09,0,.07-.14l-2.07-5.55q-.18-.47-.36,0l-2,5.55c0,.1,0,.14.07.14Z"/><path d="M123,6.24c0-3.15,0-3.72-.05-4.36s-.16-1-.85-1.12c-.17,0-.53-.05-.72-.05a.19.19,0,0,1-.16-.16c0-.12.09-.17.33-.17,1,0,2.26,0,2.43,0,.45,0,2,0,3,0,2.69,0,3.65.84,4,1.14A3.41,3.41,0,0,1,132,4c0,2.91-2.19,4.84-5.4,4.84a4,4,0,0,1-.6,0,.22.22,0,0,1-.21-.19c0-.17.12-.21.55-.21,2.26,0,3.87-1.43,3.87-3.26A4.13,4.13,0,0,0,129.06,2a3.56,3.56,0,0,0-2.83-1,6.81,6.81,0,0,0-1.16.14c-.12,0-.17.17-.17.38V9.81c0,1.95,0,3.55.09,4.38.08.59.19,1,.84,1.07a7,7,0,0,0,.93.09.17.17,0,0,1,.16.17c0,.09-.09.17-.33.17-1.14,0-2.52-.08-2.62-.08s-1.43.08-2.07.08c-.21,0-.33,0-.33-.17a.16.16,0,0,1,.16-.17,2.91,2.91,0,0,0,.65-.09c.4-.1.45-.48.54-1.07A41,41,0,0,0,123,9.81Z"/><path d="M142.15.1c4.71,0,8.28,2.88,8.28,7.59A8.11,8.11,0,0,1,142,16,7.76,7.76,0,0,1,133.84,8,8,8,0,0,1,142.15.1Zm.47,15c1.88,0,5.67-1,5.67-6.86,0-4.85-3-7.4-6.26-7.4-3.5,0-6,2.19-6,6.59C136,12.17,138.84,15.12,142.62,15.12Z"/><path d="M156.08,9.85c0,3,0,4.2.43,4.55s1.14.48,2.78.48c1.1,0,2,0,2.53-.62a2.48,2.48,0,0,0,.49-1.14c0-.15.1-.27.22-.27s.14.1.14.31a12.45,12.45,0,0,1-.31,2c-.14.47-.21.54-1.33.54-1.5,0-2.67,0-3.64-.07s-1.67-.05-2.29-.05c-.09,0-.45,0-.85,0s-.88,0-1.22,0-.33,0-.33-.17a.17.17,0,0,1,.17-.17,2.82,2.82,0,0,0,.64-.09c.4-.1.45-.48.55-1.07a41,41,0,0,0,.12-4.38V6.24c0-3.15,0-3.72-.05-4.36s-.17-1-.86-1.12c-.17,0-.52-.05-.71-.05a.19.19,0,0,1-.17-.16c0-.12.09-.17.33-.17.95,0,2.26,0,2.38,0s1.67,0,2.31,0c.22,0,.33,0,.33.17a.17.17,0,0,1-.16.14c-.14,0-.45,0-.69.05-.62.12-.74.43-.79,1.14s0,1.21,0,4.36Z"/><path d="M168.06,9.85c0,3,.05,4.2.43,4.55s1.14.48,2.79.48c1.09,0,2,0,2.52-.62a2.5,2.5,0,0,0,.5-1.14c0-.15.09-.27.21-.27s.15.1.15.31a12.69,12.69,0,0,1-.32,2c-.14.47-.21.54-1.33.54-1.5,0-2.66,0-3.64-.07s-1.67-.05-2.28-.05c-.1,0-.46,0-.86,0s-.88,0-1.21,0-.34,0-.34-.17a.17.17,0,0,1,.17-.17,2.82,2.82,0,0,0,.64-.09c.41-.1.45-.48.55-1.07a41,41,0,0,0,.12-4.38V6.24c0-3.15,0-3.72,0-4.36s-.17-1-.86-1.12c-.16,0-.52-.05-.71-.05a.2.2,0,0,1-.17-.16c0-.12.1-.17.34-.17.95,0,2.26,0,2.38,0s1.66,0,2.31,0c.21,0,.33,0,.33.17s-.1.14-.17.14-.45,0-.69.05c-.62.12-.74.43-.78,1.14s0,1.21,0,4.36Z"/><path d="M180,9.81c0,1.95,0,3.55.1,4.38.07.59.14,1,.76,1.07a7.82,7.82,0,0,0,.95.09.17.17,0,0,1,.17.17c0,.09-.1.17-.33.17-1.17,0-2.53-.08-2.62-.08s-1.43.08-2.07.08c-.22,0-.34,0-.34-.17a.17.17,0,0,1,.17-.17,2.82,2.82,0,0,0,.64-.09c.41-.1.48-.48.55-1.07.1-.83.12-2.43.12-4.38V6.24c0-3.15,0-3.72,0-4.36s-.21-1-.67-1.09a3.47,3.47,0,0,0-.64-.08.17.17,0,0,1-.16-.16c0-.12.09-.17.33-.17.69,0,2,0,2.12,0s1.45,0,2.09,0c.24,0,.34,0,.34.17a.2.2,0,0,1-.17.16,2.18,2.18,0,0,0-.52.05c-.58.12-.7.41-.74,1.12s0,1.21,0,4.36Z"/><path class="cls-1" d="M37.66,4.5A4.5,4.5,0,0,0,33.18,0H4.48A4.5,4.5,0,0,0,0,4.5,9.42,9.42,0,0,0,1,8.08S14.62,38.32,18.84,47.54C23.05,38.32,36.67,8.08,36.67,8.08A9.24,9.24,0,0,0,37.66,4.5ZM0,45a9,9,0,0,0,9,9h3.44L0,27Zm24.27,9H45a9,9,0,0,0,9-9H28.42ZM45,9,31.75,37.77,54,37.72V0C49.47,0,45,9,45,9Z"/><path d="M63.89,46.44V46H70v.42h-2.8v7.5h-.48v-7.5Z"/><path d="M74.14,46l3.13,7.92h-.52l-1-2.54H72l-1,2.54h-.52L73.61,46Zm1.45,5L73.9,46.5h0L72.11,51Z"/><path d="M79.25,46h.57l2.5,3.48L84.88,46h.56l-2.8,3.85,3,4.07H85l-2.69-3.71-2.69,3.71h-.58l3-4.07Z"/><path d="M95,46l3.13,7.92h-.52l-1-2.54H92.84l-1,2.54h-.52L94.49,46Zm1.46,5-1.7-4.48h0L93,51Z"/><path d="M100.4,46H101l5,7.26h0V46h.49v7.92h-.58l-5-7.32h0v7.32h-.48Z"/><path d="M109.59,46h2.59C115,46,115.84,48,115.84,50c0,2.24-1.14,4-3.68,4h-2.57Zm.48,7.5h2.13c1.48,0,3.15-.81,3.15-3.55,0-3.24-2.07-3.53-3.25-3.53h-2Z"/><path d="M123,46h.49v7.5H128v.42h-5Z"/><path d="M133.52,46l3.13,7.92h-.52l-1-2.54h-3.79l-1,2.54h-.53L133,46ZM135,51l-1.69-4.48h0L131.49,51Z"/><path d="M137.62,46h.5l2.06,7.4h0l2.1-7.4h.61l2.13,7.4h0l2-7.4h.52l-2.27,7.92h-.55l-2.18-7.5h0l-2.14,7.5h-.54Z"/><path d="M154.77,50v3.9h-.49V46h5v.42h-4.48v3.17h4V50Z"/><path d="M161.58,46h.49v7.92h-.49Z"/><path d="M165.11,46h3.31c1.38,0,2.5.51,2.5,2a2,2,0,0,1-1.69,2v0a1.62,1.62,0,0,1,1.54,1.7c.07.82-.06,1.71.26,2.13h-.54c-.3-.54-.12-1.45-.21-2.22s-.48-1.39-1.86-1.39H165.6v3.61h-.49Zm3.31,3.89c1.15,0,2-.54,2-1.82s-1-1.65-2-1.65H165.6v3.47Z"/><path d="M173.77,46h.7l3.1,7.38h0L180.65,46h.7v7.92h-.49V46.62h0l-3,7.32h-.49l-3.05-7.32h0v7.32h-.49Z"/><line class="cls-2" x1="181.52" y1="40.05" x2="64.07" y2="40.05"/></g></g></g></svg>